<svg preserveAspectRatio="none" overflow="visible" style="display: block;" width="24.4375" height="25" viewBox="0 0 24.4375 25" fill="none" xmlns="http://www.w3.org/2000/svg">
<g id="Container">
<path id="Icon" d="M15.625 23.6562L10.3125 18.3438L12.0625 16.5938L15.625 20.1562L22.6875 13.0938L24.4375 14.8438L15.625 23.6562V23.6562M22.5 11.25H20V5V5V5H17.5V8.75H5V5H2.5V5V5V22.5V22.5V22.5H10V25H2.5C1.8125 25 1.22396 24.7552 0.734375 24.2656C0.244792 23.776 0 23.1875 0 22.5V5C0 4.3125 0.244792 3.72396 0.734375 3.23438C1.22396 2.74479 1.8125 2.5 2.5 2.5H7.71875C7.94792 1.77083 8.39583 1.17188 9.0625 0.703125C9.72917 0.234375 10.4583 0 11.25 0C12.0833 0 12.8281 0.234375 13.4844 0.703125C14.1406 1.17188 14.5833 1.77083 14.8125 2.5H20C20.6875 2.5 21.276 2.74479 21.7656 3.23438C22.2552 3.72396 22.5 4.3125 22.5 5V11.25V11.25M11.25 5C11.6042 5 11.901 4.88021 12.1406 4.64062C12.3802 4.40104 12.5 4.10417 12.5 3.75C12.5 3.39583 12.3802 3.09896 12.1406 2.85938C11.901 2.61979 11.6042 2.5 11.25 2.5C10.8958 2.5 10.599 2.61979 10.3594 2.85938C10.1198 3.09896 10 3.39583 10 3.75C10 4.10417 10.1198 4.40104 10.3594 4.64062C10.599 4.88021 10.8958 5 11.25 5V5" fill="#3D6A00"/>
</g>
</svg>
